<svg xmlns="http://www.w3.org/2000/svg" width="933" height="622" class="undefined"><style>.a{stroke-width:1px;stroke:#010101;}</style><title class="undefined">  Layer 1</title><path d="m808.1 211.2l-1.3 0 0 1.5 -1.3 0 0 0 0 1.5 0 0 0 0 -1.3 0 0 0 0 1.5 -1.3 0 0 0 0 1.5 -2.6 0 -1.3 0 0-1.5 1.3-1.5 0-1.5 0-1.5 1.3 0 0 0 0-1.5 1.3 0 0 0 0-1.5 0 0 0 0 1.3-1.5 1.3-1.5 0 0 0 0 0-1.5q0 0 3.9-3 2.6-4.6 13-10.6 10.4-6.1 22.1-6.1 13 0 20.8 4.6 9.1 4.6 19.5 13.7 9.1 9.1 18.2 22.8 9.1 13.7 13 28.9 3.9 16.7 3.9 33.5 0 18.3-3.9 33.5 -3.9 16.7-14.3 33.5 -7.8 16.7-18.2 27.4 -10.4 10.6-27.3 21.3 -16.9 12.2-39 18.3 -22.1 9.1-48.1 12.2 -24.7 3-57.2 0 -33.8 0-70.2-9.1 -36.4-9.1-67.6-21.3 -31.2-12.2-54.6-27.4 -22.1-15.2-33.8-27.4 -13-12.2-15.6-13.7 -2.6-1.5-7.8 3 -3.9 4.6-20.8 19.8 -16.9 15.2-40.3 27.4 -23.4 12.2-55.9 24.3 -31.2 12.2-70.2 19.8 -39 7.6-65 9.1 -24.7 1.5-36.4-1.5 -11.7 0-36.4-7.6 -26-7.6-44.2-16.7 -16.9-9.1-28.6-18.3 -11.7-12.2-20.8-25.9 -10.4-15.2-15.6-33.5 -5.2-18.3-6.5-38 -1.3-18.3 1.3-30.4 2.6-10.6 7.8-25.9 7.8-15.2 11.7-19.8 5.2-6.1 5.2-7.6 0-1.5 2.6-3 2.6-1.5 14.3-9.1 11.7-7.6 26-7.6 15.6 0 26 4.6l10.4 4.6 0 1.5 0 0 1.3 0 0 1.5 0 0 1.3 0 0 0 0 0 1.3 1.5 1.3 1.5 0 0 0 0 1.3 0 0 0 0 1.5 1.3 0 0 1.5 0 1.5 -2.6 0 -3.9-1.5 -1.3 0 -1.3 0 0-1.5 -1.3 0 0 0 0-1.5 -5.2 0q-3.9-3-14.3-1.5 -10.4 1.5-18.2 7.6 -6.5 7.6-11.7 18.3 -5.2 10.6-5.2 30.4 0 21.3 5.2 28.9 3.9 7.6 10.4 12.2 6.5 4.6 18.2 4.6 13 0 31.2-9.1 19.5-9.1 49.4-28.9 31.2-19.8 61.1-41.1 31.2-21.3 53.3-33.5 23.4-12.2 39-15.2 16.9-6.1 37.7-4.6 20.8 1.5 40.3 7.6 19.5 9.1 33.8 19.8 15.6 10.6 16.9 12.2 1.3 1.5 15.6-10.6 14.3-12.2 33.8-18.3 19.5-9.1 28.6-9.1 9.1-3 32.5-1.5 23.4 1.5 41.6 6.1 16.9 4.6 41.6 19.8 24.7 15.2 71.5 51.7 46.8 36.5 63.7 42.6 15.6 9.1 29.9 9.1 14.3 0 24.7-6.1 10.4-6.1 15.6-12.2 5.2-7.6 5.2-25.9 0-18.3-5.2-28.9 -5.2-10.6-11.7-18.3 -6.5-6.1-11.7-9.1 -6.5-3-15.6-3 -7.8 0-13 4.6 -3.9 4.6-5.2 4.6z" class="a"/></svg>